<?xml version="1.0" encoding="UTF-8"?>
<svg version="1.1" viewBox="0 0 48 48" xmlns="http://www.w3.org/2000/svg">
 <path d="m18 5c-3.31 0-6 2.69-6 6v3h-6c-1.11 0-2 0.89-2 2v25c0 1.11 0.89 2 2 2h36c1.11 0 2-0.89 2-2v-25c0-1.11-0.89-2-2-2h-6v-3c0-3.31-2.69-6-6-6zm0 4h12c1.11 0 2 0.89 2 2v3h-16v-3c0-1.11 0.89-2 2-2zm6 9.5c1.88 0 3.71 0.6 5.24 1.69l1.25-1.25c0.58-0.58 1.51-0.6 2.09-0.02s0.56 1.51-0.02 2.09l-1.24 1.24c1.09 1.52 1.69 3.36 1.69 5.24v10c0 0.55-0.45 1-1 1h-16c-0.55 0-1-0.45-1-1v-10c0-1.88 0.59-3.71 1.69-5.24l-1.24-1.24c-0.58-0.58-0.6-1.51-0.02-2.09 0.58-0.58 1.51-0.57 2.09 0.02l1.25 1.25c1.52-1.09 3.36-1.69 5.24-1.69z" fill="#fff"/>
 <circle cx="20" cy="27.33" r="1.666" fill="#fff"/>
 <circle cx="28" cy="27.33" r="1.666" fill="#fff"/>
</svg>
