<svg width="48" height="48" version="1.1" viewBox="0 0 48 48" xmlns="http://www.w3.org/2000/svg">
 <path d="m24 2a22 22 0 0 0 -22 22 22 22 0 0 0 22 22 22 22 0 0 0 22 -22 22 22 0 0 0 -22 -22zm-7 11h8.25c2.64 0 7.15 0.977 7.15 5.54 0 3.06-1.1 3.88-2.66 4.74 1.79 0.477 3.5 2.4 3.5 5.73 0 4.81-3.96 6-7.74 6h-8.5v-22zm5 4v4.5h3.25c1.5 0 2.04-1 2.04-2.31s-0.809-2.19-2.04-2.19h-3.25zm0 8.5v5.5h3.5c1.64 0 2.64-0.642 2.64-3 0-1.39-0.877-2.5-2.64-2.5h-3.5z" fill="#fff"/>
 <path d="m40.36 27.84a1.71 1.71 0 0 0 -1.22 0.5l-5.39 5.4-5.39 5.39a1.71 1.71 0 0 0 0.77 2.86l7.37 1.98 7.37 1.97a1.71 1.71 0 0 0 2.1 -2.1l-1.97-7.37-1.98-7.37a1.71 1.71 0 0 0 -1.64 -1.27z" fill="#fff"/>
</svg>
