<?xml version="1.0" encoding="UTF-8"?>
<svg version="1.1" viewBox="0 0 48 48" xmlns="http://www.w3.org/2000/svg">
    <path d="m7 5c-1.108 0-2 0.892-2 2v34c0 1.108 0.892 2 2 2h34c1.108 0 2-0.892 2-2v-34c0-1.108-0.892-2-2-2h-34zm16.916 2.85c8.943 1.28 10.566 6.801 10.541 10.432-0.257-0.584-0.775-1.433-1.363-2.227-0.936-1.262-2.602-2.171-4.014-2.810-1.119-0.507-2.208-0.773-2.914-0.92v22.479h 0a4.432 6.402 76.596 0 1 -5.045 5.039 4.432 6.402 76.596 0 1 -7.449 -2.604 4.432 6.402 76.596 0 1 4.918 -5.9 4.432 6.402 76.596 0 1 5.324 0.318 4.432 6.402 76.596 0 0 0 0v-23.809z" fill="#fff"/>
</svg>
