<?xml version="1.0" encoding="UTF-8"?>
<svg viewBox="0 0 48 48" xmlns="http://www.w3.org/2000/svg">
 <path d="m18 5c-3.31 0-6 2.69-6 6v3h-6c-1.11 0-2 0.89-2 2v25c0 1.11 0.89 2 2 2h36c1.11 0 2-0.89 2-2v-25c0-1.11-0.89-2-2-2h-6v-3c0-3.31-2.69-6-6-6h-12zm0 4h12c1.11 0 2 0.89 2 2v3h-16v-3c0-1.11 0.89-2 2-2zm-2.82 9.15c0.11-0.01 0.23-0.01 0.36 0.01 0.34 0.04 0.73 0.19 1.178 0.44l9.77 5.42-2.51 3.21-8.89-9.05c0.03-0.01 0.06-0.02 0.09-0.02zm-0.57 0.23l8.14 10.42-8.13 10.4c-0.4-0.33-0.62-0.97-0.62-1.93v-16.94c0-0.96 0.2-1.62 0.61-1.95zm14.3 6.98l4.02 2.23c1.43 0.79 1.43 1.63 0 2.43l-4.02 2.23-3.38-3.44 3.38-3.44zm-4.93 5.02l2.51 3.21-9.77 5.42c-0.67 0.37-1.21 0.5-1.63 0.43l8.9-9.05z" fill="#fff"/>
</svg>
