<?xml version="1.0" encoding="UTF-8"?>
<svg version="1.1" viewBox="0 0 48 48" xmlns="http://www.w3.org/2000/svg">
 <path d="m4 8c-1.108 0-2 0.892-2 2v26c0 1.108 0.892 2 2 2h40c1.108 0 2-0.892 2-2v-26c0-1.108-0.892-2-2-2zm4 5c1.108 0 2 0.892 2 2v5.764l5.105-2.553c0.2778-0.1388 0.584-0.2109 0.8945-0.2109 1.105 0 2 0.8954 2 2 9.8e-5 0.7576-0.4279 1.45-1.105 1.789l-5.336 2.668 5.756 5.039c0.4347 0.379 0.6846 0.9272 0.6856 1.504 0 1.105-0.8954 2-2 2-0.4837 0 -0.9507-0.1772-1.314-0.4961-1.561-1.359-3.125-2.732-4.686-4.098v2.594c0 1.108-0.892 2-2 2s-2-0.892-2-2v-16c0-1.108 0.892-2 2-2zm21 0c1.108 0 2 0.892 2 2v5.764l5.105-2.553c0.2778-0.1388 0.584-0.2109 0.8945-0.2109 1.105 0 2 0.8954 2 2 0 0.7576-0.4279 1.45-1.105 1.789l-5.336 2.668 5.557 4.861c0.5588 0.3728 0.8944 1 0.8945 1.672 0 1.11-0.9 2.009-2.01 2.01-0.484 0 -0.9514-0.1763-1.316-0.4941l-4.684-4.1v2.594c0 1.108-0.892 2-2 2s-2-0.892-2-2v-16c0-1.108 0.892-2 2-2zm-7 4c1.108 0 2 0.892 2 2v12c0 1.108-0.892 2-2 2s-2-0.892-2-2v-12c0-1.108 0.892-2 2-2z" fill="#fff"/>
 <path d="m8 37v8l8-8z" fill="#fff"/>
</svg>
