<?xml version="1.0" encoding="UTF-8"?>
<svg version="1.1" viewBox="0 0 48 48" xmlns="http://www.w3.org/2000/svg">
  <path d="m7 5c-1.11 0-2 0.89-2 2v34c0 1.11 0.89 2 2 2h34c1.11 0 2-0.89 2-2v-34c0-1.11-0.89-2-2-2zm10.5 6.6c2.69-0.04 5.61 0.97 8.23 3.43 3.72-1.79 7.85 2.26 6.79 5.05 2.03 1.81 9 8.49 6.56 9.52-1.64-4.21-6.95-9.18-8.23-7.28-3.93 3.53-8.86-0.15-13.75 1.9-0.05 1.73 0.21 7.81 3.85 6.95 0.46-0.04 0.77 0.19 0.96 0.71-0.68-0.09-1.36 0.24-2.05 0.16 1.06 0.56 3.3-0.08 3.06 1.79-0.61-0.99-3.28-0.98-4.35-1.55l0.58 0.78c0.37 0.35 0.55 0.77 0.41 1.33-0.95-1.11-1.84-0.42-3.12-0.63 1.37 0.65 3.01 1.22 2.61 2.35-1.08-1.16-2.99-1.47-4.28-2.37-0.73 0.18-0.87 1.73-1.43 2.82-0.48-0.71 0.61-3.24 0.29-4.4l-1.94-5.04c-7.26-7.34-1.6-15.43 5.83-15.54zm13.82 13.53c2.9 0 5.25 2.35 5.25 5.25 0 2.9-2.35 5.25-5.25 5.25-2.9 0-5.25-2.351-5.25-5.25 0-2.9 2.35-5.25 5.25-5.25zm-15.79 1.51c-0.59 0.01-1.38 0.59-1.55 1.73 0.58 3.08 0.83 4.94 4.16 4.68l-0.98-1.25c-0.421-0.12-0.49 0.24-0.67 0.46-0.08-0.76 0.10-1.18 0.53-1.31l-0.79-3.74c-0.06-0.39-0.34-0.59-0.7-0.58z" fill="#fff"/>
  <path d="m28.32 16.96a1.5 1.58 0 0 0 -1.5 1.574 1.5 1.575 0 0 0 1.24 1.551 0.96 1.01 0 0 1 -0.33 -0.76 0.96 1.01 0 0 1 0.96 -1.01 0.96 1.01 0 0 1 0.96 0.96 1.5 1.58 0 0 0 0.17 -0.74 1.5 1.58 0 0 0 -1.5 -1.57z" fill="#fff"/>
</svg>
