<?xml version="1.0" encoding="UTF-8"?>
<svg version="1.1" viewBox="0 0 48 48" xmlns="http://www.w3.org/2000/svg">
    <path d="m7 5c-1.108 0-2 0.892-2 2v34c0 1.108 0.892 2 2 2h34c1.108 0 2-0.892 2-2v-34c0-1.108-0.892-2-2-2h-34zm17 4.941c0.49 0 0.978 0.189 1.354 0.564l3.943 3.943c0.75 0.75 0.75 1.957 0 2.707l-3.943 3.943c-0.75 0.75-1.957 0.75-2.707 0l-3.943-3.943c-0.75-0.75-0.75-1.957 0-2.707l3.943-3.943c0.375-0.375 0.864-0.564 1.354-0.564zm-8.197 8.197c0.49 0 0.98 0.187 1.356 0.563l3.943 3.943c0.75 0.75 0.75 1.959 0 2.709l-3.943 3.943c-0.75 0.75-1.959 0.75-2.709 0l-3.943-3.943c-0.75-0.75-0.75-1.959 0-2.709l3.943-3.943c0.375-0.375 0.864-0.563 1.354-0.563zm16.395 0c0.49 0 0.978 0.187 1.354 0.563l3.943 3.943c0.75 0.75 0.75 1.959 0 2.709l-3.943 3.943c-0.75 0.75-1.959 0.75-2.709 0l-3.943-3.943c-0.75-0.75-0.75-1.959 0-2.709l3.943-3.943c0.375-0.375 0.866-0.563 1.356-0.563zm-8.197 8.197c0.49 0 0.978 0.187 1.354 0.563l3.943 3.943c0.75 0.75 0.75 1.959 0 2.709l-3.943 3.943c-0.75 0.75-1.957 0.75-2.707 0l-3.943-3.943c-0.75-0.75-0.75-1.959 0-2.709l3.943-3.943c0.375-0.375 0.864-0.563 1.354-0.563z" fill="#fff"/>
</svg>
