<?xml version="1.0" encoding="UTF-8"?>
<svg version="1.1" viewBox="0 0 48 48" xmlns="http://www.w3.org/2000/svg">
 <path d="m24 2a22 22 0 0 0 -1 0.06v10.94h-2v-10.75a22 22 0 0 0 -2 0.36v10.39h-2v-9.82a22 22 0 0 0 -13.8 13.82h9.82v2h-10.37a22 22 0 0 0 -0.4 2h10.77v2h-10.97a22 22 0 0 0 -0.04 1 22 22 0 0 0 0.06 1h10.95v2h-10.75a22 22 0 0 0 0.35 2h10.4v2h-9.84a22 22 0 0 0 13.84 13.83v-9.83h2v10.4a22 22 0 0 0 2 0.37v-10.78h2v10.96a22 22 0 0 0 1 0.04 22 22 0 0 0 1 -0.05v-10.95h2v10.77a22 22 0 0 0 2 -0.381v-10.39h2v9.82a22 22 0 0 0 13.82 -13.82h-9.82v-2h10.4a22 22 0 0 0 0.37 -2h-10.77v-2h10.96a22 22 0 0 0 0.04 -1 22 22 0 0 0 -0.05 -1h-10.95v-2h10.77a22 22 0 0 0 -0.38 -2h-10.39v-2h9.82a22 22 0 0 0 -13.82 -13.82v9.82h-2v-10.39a22 22 0 0 0 -2 -0.39v10.78h-2v-10.98a22 22 0 0 0 -1 -0.02zm-8 13h16c0.55 0 1 0.45 1 1v16c0 0.55-0.45 1-1 1h-16c-0.55 0-1-0.45-1-1v-16c0-0.55 0.45-1 1-1z" fill="#fff"/>
</svg>
