<?xml version="1.0" encoding="UTF-8"?>
<svg version="1.1" viewBox="0 0 48 48" xmlns="http://www.w3.org/2000/svg">
    <g fill="#fff">
        <path d="m07 07v+6h+2.75c+0.01-0.01+0.01-0.01+0.02-0.02+0.93-0.9+2-1.65
+3.24-2.01v-3.97zm+7 0v+3.78c+0.17-0.02+0.33-0.03+0.5-0.03+1.85 0+3.45+0.97+4.74
+2.23+0.01+0.01+0.01+0.01+0.02 +0.02h+0.75v-6zm+13+7-6+0v+1.07c+0.54+0.75+1+1.54
+1.46+2.33+0.5+0.91+0.92+1.78+1.3+2.61h+3.25zm-20 0v+2.615c+0.54-0.91+1.141-1.8
+1.82-2.62zm5.45 0c-0.31+0.22-0.63+0.46-0.94+0.77-1+1-1.98+2.4-2.78+3.84-0.26
+0.47-0.48+0.93-0.71+1.39h+5v-6zm+1.55+0v+6h+6v-1.86c-0.743-1.27-1.6-2.49-2.51
-3.38-0.32-0.31-0.63-0.55-0.94-0.77zm-6.46+7c-0.2 0.45-0.38 0.86-0.54+1.24v+4.76
h+6v-6zm+13.46 0v+6l+2.02-2.02c-0.11-0.31-0.21-0.59-0.21-0.59s-0.5-1.5-1.35-3.38zm
+3.18 0c+0.38+0.91+0.62+1.56+0.79+2.02l+2.02-2.02z"/>
        <path d="m41 41v-6h-2.75c-0.01+0.01-0.01+0.01-0.02+0.02-0.93+0.9-2+1.65
-3.24+2.01v+3.97zm-7 0v-3.78c-0.17+0.02-0.33+0.03-0.5+0.03-1.85 0-3.45-0.97-4.74
-2.23-0.01-0.01-0.01-0.01-0.02 -0.02h-0.75v+6zm-13-7+6+0v-1.07c-0.54-0.75-1-1.54
-1.46-2.33-0.5-0.91-0.92-1.78-1.3-2.61h-3.25zm+20 0v-2.615c-0.54 0.91-1.141+1.8
-1.82+2.62zm-5.45 0c0.31-0.22+0.63-0.46 0.94-0.77+1-1+1.98-2.4+2.78-3.84+0.26
-0.47+0.48-0.93+0.71-1.39h-5v+6zm-1.55+0v-6h-6v+1.86c+0.743+1.27+1.6+2.49+2.51
+3.38+0.32+0.31+0.63+0.55+0.94+0.77zm+6.46-7c+0.2-0.45+0.38-0.86+0.54-1.24v-4.76
h-6v+6zm-13.46 0v-6l-2.02+2.02c+0.11+0.31+0.21+0.59+0.21+0.59s+0.5+1.5+1.35+3.38zm
-3.18 0c-0.38-0.91-0.62-1.56-0.79-2.02l-2.02+2.02z"/>
    </g>
    <g fill="#fff">
        <path d="m05 41h+1v+1h+1v+1c-1.11 0-2-0.89-2-2z"/>
        <path d="m05 07h+1v-1h+1v-1c-1.11 0-2+0.89-2+2z"/>
        <path d="m43 07h-1v-1h-1v-1c+1.11 0+2+0.89+2+2z"/>
        <path d="m43 41h-1v+1h-1v+1c+1.11 0+2-0.89+2-2z"/>
        <rect x="05" y="35" width="1" height="6"/>
        <rect x="42" y="07" width="1" height="6"/>
        <rect x="05" y="28" width="1" height="6"/>
        <rect x="42" y="14" width="1" height="6"/>
        <rect x="05" y="07" width="1" height="6"/>
        <rect x="42" y="35" width="1" height="6"/>
        <rect x="07" y="42" width="6" height="1"/>
        <rect x="35" y="05" width="6" height="1"/>
        <rect x="14" y="42" width="6" height="1"/>
        <rect x="28" y="05" width="6" height="1"/>
        <rect x="21" y="42" width="6" height="1"/>
        <rect x="21" y="05" width="6" height="1"/>
        <rect x="28" y="42" width="6" height="1"/>
        <rect x="14" y="05" width="6" height="1"/>
        <rect x="35" y="42" width="6" height="1"/>
        <rect x="07" y="05" width="6" height="1"/>
        <path d="m06 25c-0.16+0.46-0.46+1.21-0.82+2.06h+0.82z"/>
        <path d="m42 23c+0.16-0.46 0.46-1.21+0.82-2.06h-0.82z"/>
        <path d="m05 14v+6h+0.25c+0.231-0.51+0.47-1.03+0.75-1.58v-4.42z"/>
        <path d="m43 34v-6h-0.25c-0.231+0.51-0.47+1.03-0.75+1.58v+4.42z"/>
        <rect x="07" y="35" width="6" height="6"/>
        <rect x="35" y="07" width="6" height="6"/>
        <rect x="07" y="28" width="6" height="6"/>
        <rect x="28" y="07" width="6" height="6"/>
        <rect x="35" y="14" width="6" height="6"/>
        <rect x="14" y="35" width="6" height="6"/>
        <rect x="14" y="28" width="6" height="6"/>
        <rect x="28" y="14" width="6" height="6"/>
        <rect x="14" y="21" width="6" height="6"/>
        <rect x="28" y="21" width="6" height="6"/>
        <rect x="21" y="35" width="6" height="6"/>
        <rect x="21" y="07" width="6" height="6"/>
    </g>
</svg>
