<?xml version="1.0" encoding="UTF-8"?>
<svg version="1.1" viewBox="0 0 48 48" xmlns="http://www.w3.org/2000/svg">
    <path d="M24 2A22 22 0 0 0 2 24a22 22 0 0 0 22 22 22 22 0 0 0 22-22A22 22 0 0 0 24 2zm1.414 5.99c1.58.112 3.696.676 5.12 1.344l-2.204 3.818a11.47 11.47 0 0 0-2.916-0.775V7.99zm-3.023.022v4.365a11.475 11.475 0 0 0-2.916.775l-2.176-3.767a16.083 16.083 0 0 1 5.092-1.373zm10.775 2.804a16.093 16.093 0 0 1 3.795 3.74l-3.893 2.249a11.693 11.693 0 0 0-2.13-2.13l2.228-3.859zm-18.484.077l2.183 3.783a11.68 11.68 0 0 0-2.127 2.13L10.93 14.61a16.087 16.087 0 0 1 3.752-3.716zm7.709 4.535v4.183c-0.51.183-0.984.456-1.397.807l-3.633-2.096a8.513 8.513 0 0 1 5.03-2.894zm3.023 0a8.513 8.513 0 0 1 5.03 2.892l-3.63 2.096a4.494 4.494 0 0 0-1.4-0.805v-4.183zm13.088 1.728a16.093 16.093 0 0 1 1.445 5.176H35.37a11.47 11.47 0 0 0-0.775-2.918l3.908-2.258zm-29.098.06l3.809 2.2a11.47 11.47 0 0 0-0.776 2.916H7.973c.19-1.773.674-3.501 1.431-5.115zm22.543 3.725c.325.907.51 1.88.51 2.9 0 1.021-0.185 1.996-0.51 2.901l-3.621-2.092c.05-0.266.075-0.537.076-0.808 0-0.272-0.026-0.542-0.076-0.809l3.621-2.092zm-16.088.002l3.623 2.092c-0.05.267-0.075.536-0.076.807 0 0.27.025.542.074.808l-3.621 2.092a8.582 8.582 0 0 1-0.51-2.9c0-1.02.186-1.993.51-2.899zm24.098 1.473c.058.527.09 1.056.096 1.586 0 0.142-0.02.284-0.024.426-0.01.308-0.018.618-0.047.926h-0.003a16.072 16.072 0 0 1-1.356 5.242l-4.027-2.326c.382-0.918.64-1.899.773-2.916h4.61c.026-0.308.041-0.617.05-0.926.005-0.142.02-0.284.022-0.426a16.061 16.061 0 0 0-0.094-1.586zm-32.01 2.938h4.49c.134 1.018.393 1.998.776 2.916L9.29 30.535a16.093 16.093 0 0 1-1.344-5.181zm18.865 1.914l3.631 2.095a8.508 8.508 0 0 1-5.03 2.895v-4.182a4.493 4.493 0 0 0 1.4-0.808zm-5.822.002c.415.35.888.623 1.4.804v4.182a8.511 8.511 0 0 1-5.03-2.893l3.63-2.094zm-6.252 3.609a11.66 11.66 0 0 0 2.127 2.129l-2.317 4.016a16.09 16.09 0 0 1-3.775-3.856l3.965-2.29zm18.332.002l4.064 2.346a16.084 16.084 0 0 1-3.841 3.857l-2.354-4.076a11.682 11.682 0 0 0 2.13-2.127zm-13.596 3.65c.918.383 1.898.644 2.916.778v4.7a16.083 16.083 0 0 1-5.236-1.456l2.32-4.022zm8.855.002l2.348 4.067a16.085 16.085 0 0 1-5.264 1.41v-4.701a11.469 11.469 0 0 0 2.916-0.776z" fill="#fff"/>
</svg>
